<svg width="25" height="24" viewBox="0 0 25 24" fill="none" xmlns="http://www.w3.org/2000/svg">
<path opacity="0.4" d="M24.8 12C24.8 18.6276 19.4276 24 12.8 24C6.17236 24 0.799957 18.6276 0.799957 12C0.799957 5.3736 6.17236 0 12.8 0C19.4276 0 24.8 5.3736 24.8 12Z" fill="#2F3739"/>
<path d="M17.4316 8.04577L15.4876 14.1898C15.4156 14.4418 15.2116 14.6458 14.9596 14.719L8.83962 16.6378C8.43162 16.771 8.03562 16.3738 8.16762 15.9658L10.0876 9.80977C10.1596 9.55777 10.3636 9.36577 10.6156 9.28177L16.7596 7.36177C17.1796 7.22977 17.5636 7.62577 17.4316 8.04577Z" fill="#2F3739"/>
</svg>
