<svg width="82" height="78" viewBox="0 0 82 78" fill="none" xmlns="http://www.w3.org/2000/svg">
<g id="Iconly/Bold/Ticket-Star" filter="url(#filter0_d_1563_905)">
<g id="Ticket-Star">
<path id="Vector" d="M55.64 16.0908C61.35 16.0908 65.9975 20.6959 65.9975 26.3537L66 33.0469C66 33.5374 65.8025 34.013 65.4525 34.3598C65.1 34.7091 64.625 34.9048 64.125 34.9048C62.0725 34.9048 60.4025 36.5596 60.4025 38.5933C60.4025 40.627 62.0725 42.2818 64.125 42.2818C65.16 42.2818 66 43.1141 66 44.1396V50.8304C66 56.4883 61.355 61.0908 55.645 61.0908H26.3575C20.6475 61.0908 16 56.4883 16 50.8304V44.1396C16 43.1141 16.84 42.2818 17.875 42.2818C19.93 42.2818 21.6 40.627 21.6 38.5933C21.6 36.6116 19.9975 35.1203 17.875 35.1203C17.3775 35.1203 16.9025 34.9246 16.55 34.5754C16.1975 34.2261 16 33.7529 16 33.2625L16.005 26.3537C16.005 20.6959 20.65 16.0908 26.36 16.0908H55.64ZM41.005 28.9745C40.295 28.9745 39.66 29.3659 39.3425 29.9951L37.52 33.6539L33.455 34.2409C32.7525 34.34 32.1775 34.8156 31.955 35.4845C31.735 36.1533 31.9125 36.8766 32.4225 37.3671L35.37 40.2109L34.675 44.2313C34.555 44.9249 34.8375 45.6136 35.4125 46.0272C35.7375 46.2576 36.115 46.3765 36.4975 46.3765C36.79 46.3765 37.085 46.3047 37.355 46.1635L41 44.266L44.6375 46.1585C45.2675 46.4929 46.015 46.4409 46.5875 46.0248C47.165 45.6136 47.4475 44.9249 47.3275 44.2313L46.63 40.2109L49.5775 37.3671C50.09 36.8766 50.2675 36.1533 50.045 35.4845C49.825 34.8156 49.25 34.34 48.555 34.2434L44.4825 33.6539L42.66 29.9976C42.3475 29.3684 41.7125 28.977 41.005 28.9745Z" fill="#1DA1F2"/>
</g>
</g>
<defs>
<filter id="filter0_d_1563_905" x="0" y="0.0908203" width="82" height="77" filterUnits="userSpaceOnUse" color-interpolation-filters="sRGB">
<feFlood flood-opacity="0" result="BackgroundImageFix"/>
<feColorMatrix in="SourceAlpha" type="matrix" values="0 0 0 0 0 0 0 0 0 0 0 0 0 0 0 0 0 0 127 0" result="hardAlpha"/>
<feMorphology radius="1" operator="dilate" in="SourceAlpha" result="effect1_dropShadow_1563_905"/>
<feOffset/>
<feGaussianBlur stdDeviation="7.5"/>
<feComposite in2="hardAlpha" operator="out"/>
<feColorMatrix type="matrix" values="0 0 0 0 0 0 0 0 0 0 0 0 0 0 0 0 0 0 0.25 0"/>
<feBlend mode="normal" in2="BackgroundImageFix" result="effect1_dropShadow_1563_905"/>
<feBlend mode="normal" in="SourceGraphic" in2="effect1_dropShadow_1563_905" result="shape"/>
</filter>
</defs>
</svg>
