<svg width="40" height="30" viewBox="0 0 40 30" fill="none" xmlns="http://www.w3.org/2000/svg">
<path d="M19.9073 19.1629C26.1458 19.1629 31.4727 20.152 31.4727 24.1097C31.4727 28.0659 26.18 29.0909 19.9073 29.0909C13.6688 29.0909 8.34198 28.1019 8.34198 24.1458C8.34198 20.188 13.6346 19.1629 19.9073 19.1629ZM29.882 16.7798C32.267 16.7356 34.8311 17.0631 35.7786 17.2956C37.7859 17.6902 39.1062 18.4958 39.6532 19.6666C40.1156 20.6278 40.1156 21.7429 39.6532 22.7025C38.8164 24.5184 36.1188 25.1014 35.0704 25.252C34.8539 25.2848 34.6797 25.0965 34.7025 24.8787C35.2381 19.8468 30.9776 17.461 29.8754 16.9124C29.8282 16.8879 29.8185 16.8502 29.8233 16.8273C29.8266 16.8109 29.8461 16.7847 29.882 16.7798ZM10.1193 16.7804C10.1551 16.7853 10.173 16.8115 10.1763 16.8263C10.1811 16.8508 10.1714 16.8869 10.1258 16.9131C9.022 17.4616 4.76151 19.8474 5.29712 24.8777C5.31991 25.0971 5.14735 25.2838 4.93082 25.2527C3.88239 25.102 1.18478 24.5191 0.347986 22.7031C-0.115995 21.742 -0.115995 20.6285 0.347986 19.6673C0.894996 18.4965 2.21368 17.6909 4.22101 17.2946C5.17014 17.0637 7.73262 16.7362 10.1193 16.7804ZM19.9073 0C24.1548 0 27.5606 3.42231 27.5606 7.69609C27.5606 11.9682 24.1548 15.3938 19.9073 15.3938C15.6599 15.3938 12.2541 11.9682 12.2541 7.69609C12.2541 3.42231 15.6599 0 19.9073 0ZM30.2971 1.28345C34.3997 1.28345 37.6215 5.16588 36.5242 9.49043C35.7835 12.4018 33.1021 14.3357 30.1148 14.2571C29.8152 14.2489 29.5205 14.2211 29.2356 14.1719C29.0289 14.1359 28.9247 13.9018 29.0419 13.7282C30.1815 12.0416 30.8311 10.0128 30.8311 7.83495C30.8311 5.56215 30.1213 3.44327 28.8889 1.70591C28.8498 1.65188 28.8205 1.56837 28.8596 1.50614C28.8921 1.45538 28.9524 1.42918 29.0093 1.41608C29.4245 1.33093 29.851 1.28345 30.2971 1.28345ZM9.70169 1.28328C10.1478 1.28328 10.5743 1.33077 10.9911 1.41592C11.0464 1.42902 11.1083 1.45685 11.1408 1.50598C11.1783 1.5682 11.1506 1.65171 11.1115 1.70575C9.87914 3.4431 9.16933 5.56198 9.16933 7.83479C9.16933 10.0126 9.81891 12.0414 10.9585 13.728C11.0757 13.9016 10.9715 14.1358 10.7648 14.1718C10.4782 14.2225 10.1852 14.2487 9.88565 14.2569C6.89826 14.3355 4.21694 12.4017 3.4762 9.49027C2.37729 5.16572 5.59912 1.28328 9.70169 1.28328Z" fill="black"/>
</svg>
