<svg width="21" height="21" viewBox="0 0 21 21" fill="none" xmlns="http://www.w3.org/2000/svg">
<g id="Date range" clip-path="url(#clip0_1563_309)">
<path id="Vector" d="M7.85999 9.6665H6.19332V11.3332H7.85999V9.6665ZM11.1933 9.6665H9.52665V11.3332H11.1933V9.6665ZM14.5267 9.6665H12.86V11.3332H14.5267V9.6665ZM16.1933 3.83317H15.36V2.1665H13.6933V3.83317H7.02665V2.1665H5.35999V3.83317H4.52665C3.60165 3.83317 2.86832 4.58317 2.86832 5.49984L2.85999 17.1665C2.85999 18.0832 3.60165 18.8332 4.52665 18.8332H16.1933C17.11 18.8332 17.86 18.0832 17.86 17.1665V5.49984C17.86 4.58317 17.11 3.83317 16.1933 3.83317ZM16.1933 17.1665H4.52665V7.99984H16.1933V17.1665Z" fill="black"/>
</g>
<defs>
<clipPath id="clip0_1563_309">
<rect width="20" height="20" fill="white" transform="translate(0.359985 0.5)"/>
</clipPath>
</defs>
</svg>
