<svg width="21" height="24" viewBox="0 0 21 24" fill="none" xmlns="http://www.w3.org/2000/svg">
<path opacity="0.4" d="M18.9704 8.4252C18.4286 8.4252 17.7109 8.4132 16.8174 8.4132C14.6383 8.4132 12.8465 6.6096 12.8465 4.41V0.5508C12.8465 0.2472 12.6041 0 12.3035 0H5.9562C2.99405 0 0.599854 2.4312 0.599854 5.4108V18.3408C0.599854 21.4668 3.10812 24 6.20335 24H15.6554C18.6068 24 20.9999 21.5844 20.9999 18.6024V8.9652C20.9999 8.6604 20.7586 8.4144 20.4569 8.4156C19.9495 8.4192 19.3411 8.4252 18.9704 8.4252Z" fill="black"/>
<path opacity="0.4" d="M15.7005 0.680844C15.3417 0.307644 14.7153 0.564444 14.7153 1.08164V4.24604C14.7153 5.57324 15.8085 6.66524 17.1357 6.66524C17.9721 6.67484 19.1337 6.67724 20.1201 6.67484C20.6253 6.67364 20.8821 6.07004 20.5317 5.70524C19.2657 4.38884 16.9989 2.02964 15.7005 0.680844Z" fill="black"/>
<path d="M13.7014 15.4716C14.1946 15.4716 14.5954 15.8724 14.5954 16.3656C14.5954 16.8588 14.1946 17.2584 13.7014 17.2584H7.16855C6.67535 17.2584 6.27575 16.8588 6.27575 16.3656C6.27575 15.8724 6.67535 15.4716 7.16855 15.4716H13.7014ZM11.2304 9.47852C11.7236 9.47852 12.1244 9.87932 12.1244 10.3725C12.1244 10.8657 11.7236 11.2653 11.2304 11.2653H7.16843C6.67523 11.2653 6.27563 10.8657 6.27563 10.3725C6.27563 9.87932 6.67523 9.47852 7.16843 9.47852H11.2304Z" fill="black"/>
</svg>
