<svg width="52" height="51" viewBox="0 0 52 51" fill="none" xmlns="http://www.w3.org/2000/svg">
<path fill-rule="evenodd" clip-rule="evenodd" d="M49.7888 32.3893C50.8349 32.4678 51.6175 33.3822 51.539 34.4282L51.0578 40.7833C50.6601 46.0265 46.2351 50.1323 40.9793 50.1323H11.5975C6.34168 50.1323 1.91667 46.0265 1.51901 40.7833L1.03775 34.4282C0.959232 33.3822 1.74444 32.4678 2.79053 32.3893C3.84169 32.3513 4.74847 33.0934 4.82953 34.142L5.30825 40.4946C5.55647 43.7671 8.31735 46.333 11.5975 46.333H40.9793C44.2594 46.333 47.0228 43.7671 47.2685 40.4946L47.7498 34.142C47.8308 33.0934 48.7604 32.3487 49.7888 32.3893ZM29.5563 0.132324C33.3632 0.132324 36.5169 2.98506 36.992 6.66478L41.9806 6.66699C47.2895 6.66699 51.6056 10.9957 51.6056 16.3199V25.0306C51.6056 25.7069 51.246 26.33 50.6659 26.6694C44.4139 30.3307 36.494 32.4663 28.1877 32.7511L28.1886 37.3069C28.1886 38.3555 27.3375 39.2066 26.2889 39.2066C25.2403 39.2066 24.3892 38.3555 24.3892 37.3069L24.3876 32.7518C16.0896 32.4695 8.16906 30.3335 1.91237 26.6694C1.3298 26.33 0.972656 25.7069 0.972656 25.0306V16.2946C0.972656 10.9856 5.30141 6.66699 10.6231 6.66699L15.5858 6.66478C16.0608 2.98506 19.2146 0.132324 23.0214 0.132324H29.5563ZM41.9806 10.4664H10.6231C7.39613 10.4664 4.77203 13.0803 4.77203 16.2946V23.9237C10.7844 27.1906 18.3642 28.9811 26.2537 28.9845L26.2889 28.9812L26.317 28.9822L27.5231 28.9697C34.9845 28.7919 42.1024 27.0216 47.8063 23.9237V16.3199C47.8063 13.0905 45.1948 10.4664 41.9806 10.4664ZM29.5563 3.9317H23.0214C21.3159 3.9317 19.8762 5.09246 19.4509 6.66542H33.1269C32.7016 5.09246 31.2619 3.9317 29.5563 3.9317Z" fill="black"/>
</svg>
