<svg width="60" height="60" viewBox="0 0 60 60" fill="none" xmlns="http://www.w3.org/2000/svg">
<rect width="60" height="60" rx="30" fill="white" fill-opacity="0.75"/>
<path d="M39.2616 32.262C39.1486 32.378 38.7219 32.874 38.3244 33.282C35.9942 35.848 29.9152 40.048 26.7336 41.33C26.2504 41.536 25.0287 41.972 24.376 42C23.7506 42 23.1544 41.856 22.5855 41.564C21.8763 41.156 21.3074 40.514 20.9956 39.756C20.7949 39.23 20.4832 37.656 20.4832 37.628C20.1715 35.906 20 33.108 20 30.016C20 27.07 20.1715 24.386 20.4267 22.638C20.4559 22.61 20.7677 20.654 21.1086 19.984C21.734 18.76 22.9557 18 24.263 18H24.376C25.2275 18.03 27.018 18.79 27.018 18.818C30.0283 20.102 35.9669 24.096 38.3536 26.75C38.3536 26.75 39.0258 27.432 39.3181 27.858C39.774 28.47 40 29.228 40 29.986C40 30.832 39.7448 31.62 39.2616 32.262Z" fill="#1DA1F2"/>
</svg>
