<svg width="53" height="51" viewBox="0 0 53 51" fill="none" xmlns="http://www.w3.org/2000/svg">
<path d="M16.6419 0.000409857C18.3114 0.0511825 19.9278 0.342679 21.494 0.875324H21.6503C21.7563 0.925673 21.8358 0.981323 21.8888 1.03167C22.4745 1.21982 23.0283 1.43182 23.5583 1.72331L24.5653 2.17381C24.9628 2.38581 25.4398 2.78065 25.7048 2.9423C25.9698 3.09865 26.2613 3.2603 26.4998 3.44315C29.4439 1.19332 33.0187 -0.0256667 36.7022 0.000409857C38.3743 0.000409857 40.0438 0.236681 41.6311 0.769325C51.4122 3.94929 54.9366 14.6817 51.9925 24.0626C50.323 28.8564 47.5935 33.2315 44.0187 36.8063C38.9016 41.7617 33.2863 46.1607 27.2418 49.9502L26.5793 50.3503L25.8903 49.9237C19.8245 46.1607 14.1774 41.7617 9.0126 36.7798C5.46164 33.205 2.72952 28.8564 1.03353 24.0626C-1.96094 14.6817 1.56353 3.94929 11.4506 0.713676C12.2191 0.448678 13.0114 0.26318 13.8064 0.159831H14.1244C14.869 0.0511824 15.6084 0.000409857 16.3504 0.000409857H16.6419ZM40.2531 8.37475C39.1666 8.0011 37.9741 8.58674 37.5766 9.69973C37.2057 10.8127 37.7886 12.0317 38.9016 12.4266C40.6003 13.0625 41.7371 14.7347 41.7371 16.587V16.6692C41.6868 17.276 41.8696 17.8616 42.2406 18.3121C42.6116 18.7626 43.1681 19.025 43.7511 19.0806C44.8376 19.0515 45.7651 18.1796 45.8446 17.064V16.7487C45.9241 13.036 43.6742 9.67323 40.2531 8.37475Z" fill="#1DA1F2"/>
</svg>
