<svg width="82" height="82" viewBox="0 0 82 82" fill="none" xmlns="http://www.w3.org/2000/svg">
<g filter="url(#filter0_d_1563_475)">
<path d="M41 16C54.8 16 66 27.2 66 41C66 54.825 54.8 66 41 66C27.175 66 16 54.825 16 41C16 27.2 27.175 16 41 16ZM50.625 32.775C50.9 31.9 50.1 31.075 49.225 31.35L36.425 35.35C35.9 35.525 35.475 35.925 35.325 36.45L31.325 49.275C31.05 50.125 31.875 50.95 32.725 50.675L45.475 46.675C46 46.525 46.425 46.1 46.575 45.575L50.625 32.775Z" fill="#1DA1F2"/>
</g>
<defs>
<filter id="filter0_d_1563_475" x="0" y="0" width="82" height="82" filterUnits="userSpaceOnUse" color-interpolation-filters="sRGB">
<feFlood flood-opacity="0" result="BackgroundImageFix"/>
<feColorMatrix in="SourceAlpha" type="matrix" values="0 0 0 0 0 0 0 0 0 0 0 0 0 0 0 0 0 0 127 0" result="hardAlpha"/>
<feMorphology radius="1" operator="dilate" in="SourceAlpha" result="effect1_dropShadow_1563_475"/>
<feOffset/>
<feGaussianBlur stdDeviation="7.5"/>
<feComposite in2="hardAlpha" operator="out"/>
<feColorMatrix type="matrix" values="0 0 0 0 0 0 0 0 0 0 0 0 0 0 0 0 0 0 0.25 0"/>
<feBlend mode="normal" in2="BackgroundImageFix" result="effect1_dropShadow_1563_475"/>
<feBlend mode="normal" in="SourceGraphic" in2="effect1_dropShadow_1563_475" result="shape"/>
</filter>
</defs>
</svg>
