<svg width="40" height="37" viewBox="0 0 40 37" fill="none" xmlns="http://www.w3.org/2000/svg">
<path d="M29.0311 0.0908203C35.9289 0.0908203 40 4.06001 40 10.8544H31.5378V10.9238C27.6104 10.9238 24.4267 14.0278 24.4267 17.8568C24.4267 21.6859 27.6104 24.7899 31.5378 24.7899H40V25.4139C40 32.1216 35.9289 36.0908 29.0311 36.0908H10.9689C4.07111 36.0908 0 32.1216 0 25.4139V10.7678C0 4.06001 4.07111 0.0908203 10.9689 0.0908203H29.0311ZM38.5067 13.8356C39.3314 13.8356 40 14.4875 40 15.2916V20.3527C39.9904 21.1529 39.3274 21.7993 38.5067 21.8087H31.6978C29.7096 21.8348 27.971 20.5076 27.52 18.6195C27.2942 17.4474 27.6112 16.238 28.3861 15.3153C29.1611 14.3926 30.3147 13.851 31.5378 13.8356H38.5067ZM32.4978 16.1756H31.84C31.4362 16.1709 31.0472 16.3241 30.76 16.6009C30.4727 16.8777 30.3111 17.2551 30.3111 17.6488C30.3111 18.4749 30.9928 19.1473 31.84 19.1568H32.4978C33.3422 19.1568 34.0267 18.4894 34.0267 17.6662C34.0267 16.8429 33.3422 16.1756 32.4978 16.1756ZM20.7644 7.8732H9.47556C8.63807 7.87314 7.95641 8.53001 7.94667 9.34648C7.94667 10.1726 8.62831 10.8449 9.47556 10.8544H20.7644C21.6088 10.8544 22.2933 10.1871 22.2933 9.36381C22.2933 8.54057 21.6088 7.8732 20.7644 7.8732Z" fill="black"/>
</svg>
