<svg width="25" height="24" viewBox="0 0 25 24" fill="none" xmlns="http://www.w3.org/2000/svg">
<path opacity="0.4" d="M24.8 12C24.8 18.6276 19.4276 24 12.8 24C6.17245 24 0.800049 18.6276 0.800049 12C0.800049 5.3736 6.17245 0 12.8 0C19.4276 0 24.8 5.3736 24.8 12Z" fill="#2F3739"/>
<path d="M17.4317 8.04577L15.4877 14.1898C15.4157 14.4418 15.2117 14.6458 14.9597 14.719L8.83971 16.6378C8.43171 16.771 8.03571 16.3738 8.16771 15.9658L10.0877 9.80977C10.1597 9.55777 10.3637 9.36577 10.6157 9.28177L16.7597 7.36177C17.1797 7.22977 17.5637 7.62577 17.4317 8.04577Z" fill="#2F3739"/>
</svg>
