<svg width="53" height="48" viewBox="0 0 53 48" fill="none" xmlns="http://www.w3.org/2000/svg">
<path d="M38.4662 0C47.6058 0 53 5.25917 53 14.2618H41.7876V14.3536C36.5838 14.3536 32.3653 18.4665 32.3653 23.54C32.3653 28.6134 36.5838 32.7263 41.7876 32.7263H53V33.5531C53 42.4408 47.6058 47.7 38.4662 47.7H14.5338C5.39422 47.7 0 42.4408 0 33.5531V14.1469C0 5.25917 5.39422 0 14.5338 0H38.4662ZM51.0213 18.2119C52.1141 18.2119 53 19.0756 53 20.141V26.847C52.9873 27.9073 52.1088 28.7638 51.0213 28.7762H41.9996C39.3652 28.8107 37.0615 27.0522 36.464 24.5505C36.1648 22.9975 36.5848 21.3949 37.6116 20.1724C38.6384 18.9498 40.167 18.2322 41.7876 18.2119H51.0213ZM43.0596 21.3123H42.188C41.6529 21.3061 41.1376 21.5091 40.757 21.8758C40.3764 22.2426 40.1622 22.7426 40.1622 23.2644C40.1622 24.3589 41.0654 25.2498 42.188 25.2624H43.0596C44.1784 25.2624 45.0853 24.3781 45.0853 23.2873C45.0853 22.1965 44.1784 21.3123 43.0596 21.3123ZM27.5129 10.3117H12.5551C11.4454 10.3116 10.5422 11.1819 10.5293 12.2637C10.5293 13.3583 11.4325 14.2492 12.5551 14.2618H27.5129C28.6317 14.2618 29.5387 13.3775 29.5387 12.2867C29.5387 11.1959 28.6317 10.3117 27.5129 10.3117Z" fill="#1DA1F2"/>
</svg>
