<svg width="49" height="50" viewBox="0 0 49 50" fill="none" xmlns="http://www.w3.org/2000/svg">
<path fill-rule="evenodd" clip-rule="evenodd" d="M19.0846 9.84669C20.0989 10.6431 20.6822 11.8308 20.6822 13.1051C20.6822 23.3771 21.0289 26.1413 22.4461 27.1931C23.3761 27.8795 24.6504 27.8725 28.9443 27.753C30.9401 27.6944 33.4958 27.6195 36.8433 27.6195C38.1786 27.6195 39.4365 28.191 40.2892 29.1866C41.081 30.1119 41.4276 31.3207 41.2449 32.5107C39.6801 42.6421 31.0596 50 20.7478 50C9.30687 50 0 40.6931 0 29.2546C0 20.1843 6.85893 11.114 15.2897 9.03852C16.6062 8.71759 18.0211 9.01743 19.0846 9.84669ZM16.3555 12.4235C16.2806 12.4235 16.2056 12.4328 16.1307 12.4516C9.17335 14.164 3.5138 21.7022 3.5138 29.2546C3.5138 38.7559 11.2441 46.4862 20.7478 46.4862C29.3144 46.4862 36.4732 40.3839 37.771 31.9742C37.7803 31.904 37.8131 31.7002 37.621 31.4729C37.4383 31.2598 37.1478 31.1333 36.8433 31.1333C33.538 31.1333 31.0151 31.2082 29.045 31.2644C24.2756 31.4073 22.3032 31.4612 20.3542 30.0159C17.5674 27.9513 17.2009 24.4803 17.1707 14.7403L17.1684 13.1051C17.1684 12.9084 17.0841 12.7444 16.9154 12.6132C16.7585 12.4891 16.5593 12.4235 16.3555 12.4235ZM42.2836 6.40387C46.4018 10.5197 49.016 15.9286 48.9411 20.185C48.913 21.8458 47.7066 23.2326 46.0762 23.4786C42.895 23.9588 39.1704 24.104 35.8744 24.104C32.8057 24.104 30.1048 23.9799 28.5517 23.8909C26.598 23.7761 25.0426 22.2183 24.9301 20.2646C24.7474 17.1678 24.3515 9.29924 24.6326 3.21335C24.7099 1.44474 26.1389 0.0368751 27.8864 0.00642219C32.8924 -0.138815 38.0577 2.18498 42.2836 6.40387ZM28.1863 3.51787H28.1347C27.877 9.41871 28.2589 17.0413 28.4369 20.0608C28.4463 20.2412 28.5775 20.3724 28.7555 20.3818C31.1636 20.52 39.4609 20.9041 45.4273 20.0257C45.4413 16.7368 43.1902 12.2766 39.8005 8.8893C36.3242 5.41767 32.2107 3.51787 28.1863 3.51787Z" fill="black"/>
</svg>
