<svg width="25" height="24" viewBox="0 0 25 24" fill="none" xmlns="http://www.w3.org/2000/svg">
<path opacity="0.4" d="M18.4105 0H7.19981C3.11447 0 0.799805 2.31467 0.799805 6.4V17.6C0.799805 21.6853 3.11447 24 7.19981 24H18.4105C22.4958 24 24.7998 21.6853 24.7998 17.6V6.4C24.7998 2.31467 22.4958 0 18.4105 0Z" fill="black"/>
<path d="M7.242 8.84277C6.698 8.84277 6.25 9.29077 6.25 9.84544V18.0908C6.25 18.6348 6.698 19.0828 7.242 19.0828C7.79667 19.0828 8.24467 18.6348 8.24467 18.0908V9.84544C8.24467 9.29077 7.79667 8.84277 7.242 8.84277Z" fill="black"/>
<path d="M12.8426 4.90674C12.2986 4.90674 11.8506 5.35474 11.8506 5.9094V18.0907C11.8506 18.6347 12.2986 19.0827 12.8426 19.0827C13.3973 19.0827 13.8453 18.6347 13.8453 18.0907V5.9094C13.8453 5.35474 13.3973 4.90674 12.8426 4.90674Z" fill="black"/>
<path d="M18.3679 13.1948C17.8132 13.1948 17.3652 13.6428 17.3652 14.1975V18.0908C17.3652 18.6348 17.8132 19.0828 18.3572 19.0828C18.9119 19.0828 19.3599 18.6348 19.3599 18.0908V14.1975C19.3599 13.6428 18.9119 13.1948 18.3679 13.1948Z" fill="black"/>
</svg>
