<svg width="54" height="51" viewBox="0 0 54 51" fill="none" xmlns="http://www.w3.org/2000/svg">
<path fill-rule="evenodd" clip-rule="evenodd" d="M27.0681 2.96699C31.2371 0.331241 36.7753 -0.396923 41.5596 1.13632C51.9667 4.49254 55.1973 15.838 52.3077 24.8657C47.849 39.0444 28.8065 49.6207 27.9989 50.0643C27.7117 50.2233 27.3938 50.3027 27.0758 50.3027C26.7579 50.3027 26.4425 50.2258 26.1554 50.0694C25.3529 49.631 6.44882 39.2111 1.84139 24.8683L1.83882 24.8657C-1.05332 15.8355 2.16701 4.48741 12.5638 1.13632C17.4456 -0.443074 22.7658 0.251758 27.0681 2.96699ZM13.7433 4.79765C5.33093 7.51032 3.21823 16.5585 5.50272 23.694C9.09738 34.878 23.2991 43.9211 27.0733 46.1594C30.8602 43.898 45.1645 34.7549 48.6438 23.7043C50.9283 16.5611 48.8079 7.51288 40.3828 4.79765C36.3009 3.48747 31.5397 4.28486 28.2527 6.8283C27.5656 7.35648 26.6118 7.36673 25.9195 6.84369C22.4376 4.22589 17.8892 3.45927 13.7433 4.79765ZM37.9214 9.88941C41.416 11.0201 43.8646 14.1148 44.1646 17.7736C44.2492 18.8325 43.4621 19.7606 42.4032 19.8453C42.3493 19.8504 42.298 19.8529 42.2442 19.8529C41.2519 19.8529 40.411 19.0914 40.3289 18.0864C40.1597 15.9788 38.7495 14.1994 36.742 13.5507C35.7292 13.2226 35.1754 12.138 35.501 11.1304C35.8317 10.1202 36.906 9.57148 37.9214 9.88941Z" fill="black"/>
</svg>
