<svg width="25" height="24" viewBox="0 0 25 24" fill="none" xmlns="http://www.w3.org/2000/svg">
<path opacity="0.4" d="M18.4107 0H7.20005C3.11472 0 0.800049 2.31467 0.800049 6.4V17.6C0.800049 21.6853 3.11472 24 7.20005 24H18.4107C22.496 24 24.8 21.6853 24.8 17.6V6.4C24.8 2.31467 22.496 0 18.4107 0Z" fill="#1DA1F2"/>
<path d="M7.24249 8.84277C6.69849 8.84277 6.25049 9.29077 6.25049 9.84544V18.0908C6.25049 18.6348 6.69849 19.0828 7.24249 19.0828C7.79715 19.0828 8.24515 18.6348 8.24515 18.0908V9.84544C8.24515 9.29077 7.79715 8.84277 7.24249 8.84277Z" fill="#1DA1F2"/>
<path d="M12.8426 4.90674C12.2986 4.90674 11.8506 5.35474 11.8506 5.9094V18.0907C11.8506 18.6347 12.2986 19.0827 12.8426 19.0827C13.3973 19.0827 13.8453 18.6347 13.8453 18.0907V5.9094C13.8453 5.35474 13.3973 4.90674 12.8426 4.90674Z" fill="#1DA1F2"/>
<path d="M18.3679 13.1948C17.8132 13.1948 17.3652 13.6428 17.3652 14.1975V18.0908C17.3652 18.6348 17.8132 19.0828 18.3572 19.0828C18.9119 19.0828 19.3599 18.6348 19.3599 18.0908V14.1975C19.3599 13.6428 18.9119 13.1948 18.3679 13.1948Z" fill="#1DA1F2"/>
</svg>
