<svg width="50" height="50" viewBox="0 0 50 50" fill="none" xmlns="http://www.w3.org/2000/svg">
<path fill-rule="evenodd" clip-rule="evenodd" d="M35.835 0C44.3075 0 50 5.945 50 14.79V35.21C50 44.055 44.3075 50 35.83 50H14.16C5.69 50 0 44.055 0 35.21V14.79C0 5.945 5.69 0 14.16 0H35.835ZM35.835 3.75H14.16C7.8375 3.75 3.75 8.0825 3.75 14.79V35.21C3.75 41.9175 7.8375 46.25 14.16 46.25H35.83C42.16 46.25 46.25 41.9175 46.25 35.21V14.79C46.25 8.0825 42.16 3.75 35.835 3.75ZM17.092 18.496C20.0302 18.498 22.5136 20.45 23.3207 23.1223L37.5243 23.1238C38.5592 23.1238 39.3993 23.9638 39.3993 24.9988V29.6313C39.3993 30.6663 38.5592 31.5063 37.5243 31.5063C36.4893 31.5063 35.6493 30.6663 35.6493 29.6313V26.8738L32.3275 26.8725L32.3288 29.6313C32.3288 30.6663 31.4887 31.5063 30.4537 31.5063C29.4187 31.5063 28.5787 30.6663 28.5787 29.6313L28.5775 26.8725L23.3218 26.8749C22.5152 29.5503 20.028 31.506 17.092 31.506C13.5045 31.506 10.587 28.586 10.587 25.001C10.587 21.4135 13.5045 18.496 17.092 18.496ZM17.097 22.246C15.572 22.246 14.337 23.481 14.337 25.001C14.337 26.521 15.572 27.756 17.092 27.756C18.6095 27.756 19.847 26.521 19.847 25.001C19.847 23.4835 18.612 22.2485 17.097 22.246Z" fill="black"/>
</svg>
