<svg width="40" height="37" viewBox="0 0 40 37" fill="none" xmlns="http://www.w3.org/2000/svg">
<path d="M31.712 0.0908203C36.28 0.0908203 39.998 3.77485 39.998 8.3011L40 13.6557C40 14.0481 39.842 14.4286 39.562 14.706C39.28 14.9855 38.9 15.142 38.5 15.142C36.858 15.142 35.522 16.4658 35.522 18.0928C35.522 19.7198 36.858 21.0436 38.5 21.0436C39.328 21.0436 40 21.7094 40 22.5299V27.8825C40 32.4088 36.284 36.0908 31.716 36.0908H8.286C3.718 36.0908 0 32.4088 0 27.8825V22.5299C0 21.7094 0.672 21.0436 1.5 21.0436C3.144 21.0436 4.48 19.7198 4.48 18.0928C4.48 16.5074 3.198 15.3144 1.5 15.3144C1.102 15.3144 0.722 15.1579 0.44 14.8784C0.158 14.599 0 14.2205 0 13.8281L0.004 8.3011C0.004 3.77485 3.72 0.0908203 8.288 0.0908203H31.712ZM20.004 10.3978C19.436 10.3978 18.928 10.7109 18.674 11.2142L17.216 14.1412L13.964 14.6109C13.402 14.6902 12.942 15.0707 12.764 15.6057C12.588 16.1408 12.73 16.7195 13.138 17.1118L15.496 19.3869L14.94 22.6032C14.844 23.1581 15.07 23.709 15.53 24.04C15.79 24.2243 16.092 24.3194 16.398 24.3194C16.632 24.3194 16.868 24.2619 17.084 24.149L20 22.631L22.91 24.145C23.414 24.4125 24.012 24.3709 24.47 24.038C24.932 23.709 25.158 23.1581 25.062 22.6032L24.504 19.3869L26.862 17.1118C27.272 16.7195 27.414 16.1408 27.236 15.6057C27.06 15.0707 26.6 14.6902 26.044 14.6129L22.786 14.1412L21.328 11.2162C21.078 10.7129 20.57 10.3997 20.004 10.3978Z" fill="black"/>
</svg>
