<svg width="21" height="24" viewBox="0 0 21 24" fill="none" xmlns="http://www.w3.org/2000/svg">
<path opacity="0.4" d="M18.9702 8.4252C18.4284 8.4252 17.7107 8.4132 16.8172 8.4132C14.6381 8.4132 12.8463 6.6096 12.8463 4.41V0.5508C12.8463 0.2472 12.6039 0 12.3033 0H5.95596C2.99381 0 0.599609 2.4312 0.599609 5.4108V18.3408C0.599609 21.4668 3.10787 24 6.2031 24H15.6551C18.6066 24 20.9996 21.5844 20.9996 18.6024V8.9652C20.9996 8.6604 20.7584 8.4144 20.4566 8.4156C19.9493 8.4192 19.3409 8.4252 18.9702 8.4252Z" fill="#1DA1F2"/>
<path opacity="0.4" d="M15.7 0.680844C15.3412 0.307644 14.7148 0.564444 14.7148 1.08164V4.24604C14.7148 5.57324 15.808 6.66524 17.1352 6.66524C17.9716 6.67484 19.1332 6.67724 20.1196 6.67484C20.6248 6.67364 20.8816 6.07004 20.5312 5.70524C19.2652 4.38884 16.9984 2.02964 15.7 0.680844Z" fill="#1DA1F2"/>
<path d="M13.7011 15.4716C14.1943 15.4716 14.5951 15.8724 14.5951 16.3656C14.5951 16.8588 14.1943 17.2584 13.7011 17.2584H7.16831C6.67511 17.2584 6.27551 16.8588 6.27551 16.3656C6.27551 15.8724 6.67511 15.4716 7.16831 15.4716H13.7011ZM11.2302 9.47852C11.7234 9.47852 12.1242 9.87932 12.1242 10.3725C12.1242 10.8657 11.7234 11.2653 11.2302 11.2653H7.16819C6.67499 11.2653 6.27539 10.8657 6.27539 10.3725C6.27539 9.87932 6.67499 9.47852 7.16819 9.47852H11.2302Z" fill="#1DA1F2"/>
</svg>
