<svg width="25" height="24" viewBox="0 0 25 24" fill="none" xmlns="http://www.w3.org/2000/svg">
<path opacity="0.4" d="M18.4106 0H7.19996C3.11462 0 0.799957 2.31467 0.799957 6.4V17.6C0.799957 21.6853 3.11462 24 7.19996 24H18.4106C22.496 24 24.8 21.6853 24.8 17.6V6.4C24.8 2.31467 22.496 0 18.4106 0Z" fill="black"/>
<path d="M7.24241 8.84277C6.69841 8.84277 6.25041 9.29077 6.25041 9.84544V18.0908C6.25041 18.6348 6.69841 19.0828 7.24241 19.0828C7.79708 19.0828 8.24508 18.6348 8.24508 18.0908V9.84544C8.24508 9.29077 7.79708 8.84277 7.24241 8.84277Z" fill="black"/>
<path d="M12.8424 4.90674C12.2984 4.90674 11.8504 5.35474 11.8504 5.9094V18.0907C11.8504 18.6347 12.2984 19.0827 12.8424 19.0827C13.3971 19.0827 13.8451 18.6347 13.8451 18.0907V5.9094C13.8451 5.35474 13.3971 4.90674 12.8424 4.90674Z" fill="black"/>
<path d="M18.3679 13.1948C17.8132 13.1948 17.3652 13.6428 17.3652 14.1975V18.0908C17.3652 18.6348 17.8132 19.0828 18.3572 19.0828C18.9119 19.0828 19.3599 18.6348 19.3599 18.0908V14.1975C19.3599 13.6428 18.9119 13.1948 18.3679 13.1948Z" fill="black"/>
</svg>
