<svg width="21" height="24" viewBox="0 0 21 24" fill="none" xmlns="http://www.w3.org/2000/svg">
<path opacity="0.4" d="M18.9705 8.4252C18.4287 8.4252 17.711 8.4132 16.8175 8.4132C14.6384 8.4132 12.8466 6.6096 12.8466 4.41V0.5508C12.8466 0.2472 12.6042 0 12.3036 0H5.95628C2.99413 0 0.59993 2.4312 0.59993 5.4108V18.3408C0.59993 21.4668 3.10819 24 6.20342 24H15.6555C18.6069 24 20.9999 21.5844 20.9999 18.6024V8.9652C20.9999 8.6604 20.7587 8.4144 20.4569 8.4156C19.9496 8.4192 19.3412 8.4252 18.9705 8.4252Z" fill="black"/>
<path opacity="0.4" d="M15.7007 0.680844C15.3419 0.307644 14.7155 0.564444 14.7155 1.08164V4.24604C14.7155 5.57324 15.8087 6.66524 17.1359 6.66524C17.9723 6.67484 19.1339 6.67724 20.1203 6.67484C20.6255 6.67364 20.8823 6.07004 20.5319 5.70524C19.2659 4.38884 16.9991 2.02964 15.7007 0.680844Z" fill="black"/>
<path d="M13.7015 15.4716C14.1947 15.4716 14.5955 15.8724 14.5955 16.3656C14.5955 16.8588 14.1947 17.2584 13.7015 17.2584H7.16873C6.67553 17.2584 6.27593 16.8588 6.27593 16.3656C6.27593 15.8724 6.67553 15.4716 7.16873 15.4716H13.7015ZM11.2306 9.47852C11.7238 9.47852 12.1246 9.87932 12.1246 10.3725C12.1246 10.8657 11.7238 11.2653 11.2306 11.2653H7.16861C6.67541 11.2653 6.27581 10.8657 6.27581 10.3725C6.27581 9.87932 6.67541 9.47852 7.16861 9.47852H11.2306Z" fill="black"/>
</svg>
