<svg width="23" height="24" viewBox="0 0 23 24" fill="none" xmlns="http://www.w3.org/2000/svg">
<path d="M7.97247 22.5385V18.8583C7.97245 17.9257 8.73079 17.168 9.67011 17.1622H13.1191C14.0626 17.1622 14.8275 17.9215 14.8275 18.8583V22.5278C14.8275 23.3367 15.4848 23.9941 16.2995 24H18.6526C19.7515 24.0028 20.8065 23.5713 21.5846 22.8008C22.3627 22.0303 22.8 20.9841 22.8 19.893V9.439C22.8 8.55765 22.4064 7.72164 21.7255 7.15619L13.7316 0.809121C12.3342 -0.301053 10.3384 -0.26519 8.98245 0.894459L1.16041 7.15619C0.447288 7.70497 0.0210627 8.54346 0 9.439V19.8823C0 22.1564 1.85685 24 4.1474 24H6.44674C6.839 24.0028 7.21617 23.85 7.49455 23.5757C7.77294 23.3013 7.9295 22.9279 7.92949 22.5385H7.97247Z" fill="#1DA1F2"/>
</svg>
