<svg width="50" height="50" viewBox="0 0 50 50" fill="none" xmlns="http://www.w3.org/2000/svg">
<path fill-rule="evenodd" clip-rule="evenodd" d="M31.1475 2.03375C32.1474 2.03375 32.9588 2.84523 32.9588 3.84508C32.9588 4.84493 32.1474 5.6564 31.1475 5.6564H13.5946C7.53752 5.6564 3.62265 9.82003 3.62265 16.2683V35.7872C3.62265 42.32 7.44333 46.3774 13.5946 46.3774H34.3741C40.4311 46.3774 44.346 42.221 44.346 35.7872V18.7873C44.346 17.7874 45.1575 16.976 46.1573 16.976C47.1572 16.976 47.9687 17.7874 47.9687 18.7873V35.7872C47.9687 44.2883 42.5057 50 34.3741 50H13.5946C5.46295 50 0 44.2883 0 35.7872V16.2683C0 7.75512 5.46295 2.03375 13.5946 2.03375H31.1475ZM36.2564 18.5284C37.0486 19.1418 37.1935 20.2793 36.58 21.0691L29.5038 30.1981C29.2092 30.5797 28.7744 30.8285 28.2962 30.8864C27.8132 30.9516 27.335 30.8116 26.9535 30.5145L20.1477 25.1675L14.0351 33.1107C13.6777 33.5744 13.1415 33.8184 12.5981 33.8184C12.2117 33.8184 11.8229 33.6952 11.4944 33.444C10.7023 32.833 10.5525 31.6955 11.1635 30.9033L18.3919 21.5086C18.6866 21.1246 19.1237 20.8759 19.6019 20.8155C20.0897 20.7527 20.5679 20.8879 20.9471 21.1898L27.7577 26.5393L33.7157 18.852C34.3292 18.0574 35.4643 17.9101 36.2564 18.5284ZM43.393 0C46.9529 0 49.8462 2.89329 49.8462 6.45314C49.8462 10.013 46.9529 12.9087 43.393 12.9087C39.8356 12.9087 36.9399 10.013 36.9399 6.45314C36.9399 2.89329 39.8356 0 43.393 0ZM43.393 3.62265C41.8329 3.62265 40.5625 4.89057 40.5625 6.45314C40.5625 8.01329 41.8329 9.28605 43.393 9.28605C44.9532 9.28605 46.2235 8.01329 46.2235 6.45314C46.2235 4.89057 44.9532 3.62265 43.393 3.62265Z" fill="black"/>
</svg>
