<svg width="53" height="53" viewBox="0 0 53 53" fill="none" xmlns="http://www.w3.org/2000/svg">
<path d="M52.4962 28.6604C52.6871 28.7677 52.7253 28.9953 52.733 29.082L52.7349 29.1166L52.5228 42.8026C52.5228 48.2619 48.2928 52.7138 42.9665 52.9867L42.4477 53H10.5258C5.13197 53 0.733464 48.7187 0.463825 43.3277L0.450725 42.8026L0.265133 29.1166C0.265133 29.1166 0.265133 28.7946 0.503752 28.6604C0.715858 28.5262 0.980991 28.6872 1.0075 28.714C6.36318 32.31 12.8059 34.6983 19.5668 35.6912C20.5213 35.8254 21.4757 35.2082 21.7409 34.2421C22.2877 32.1792 23.9764 30.7766 26.0423 30.6093L26.4602 30.5925H26.5398C28.7934 30.5925 30.6758 32.0416 31.2591 34.2421C31.5243 35.2082 32.4787 35.8254 33.4332 35.6912C40.1941 34.6983 46.6368 32.31 51.9925 28.714C51.9925 28.714 52.0455 28.6872 52.0986 28.6604C52.2046 28.6067 52.3637 28.5799 52.4962 28.6604ZM26.4867 34.43C25.4903 34.43 24.6498 35.1966 24.5166 36.1719L24.4982 36.4426V39.9044C24.4982 41.0315 25.3997 41.917 26.4867 41.917C27.5075 41.917 28.3278 41.1729 28.4574 40.1807L28.4752 39.9044V36.4426C28.4752 35.3424 27.6003 34.43 26.4867 34.43ZM29.907 0C33.8839 0 37.1451 3.03239 37.6488 6.92351H42.8984C48.4662 6.92351 53 11.5123 53 17.1478C53 17.1478 52.8409 19.5334 52.7879 22.8556C52.7826 23.1186 52.6553 23.3762 52.4459 23.5319C51.1706 24.4738 50.004 25.252 49.8979 25.3057C45.4967 28.2576 40.3823 30.3346 34.9339 31.3678C34.5786 31.4376 34.2286 31.2524 34.0483 30.9357C32.5212 28.2898 29.6683 26.567 26.4867 26.567C23.3264 26.567 20.447 28.271 18.8748 30.9196C18.6918 31.2309 18.3472 31.4107 17.9945 31.3436C12.5911 30.3078 7.47674 28.2334 3.10205 25.3325L0.556778 23.5614C0.344672 23.4272 0.212106 23.1857 0.212106 22.9174C0.132566 21.5488 0 17.1478 0 17.1478C0 11.5123 4.53377 6.92351 10.1016 6.92351H15.3247C15.8284 3.03239 19.0895 0 23.0665 0H29.907ZM29.907 4.0253H23.0665C21.2901 4.0253 19.7789 5.25972 19.3547 6.92351H33.6188C33.1946 5.25972 31.6833 4.0253 29.907 4.0253Z" fill="#1DA1F2"/>
</svg>
