<svg width="25" height="24" viewBox="0 0 25 24" fill="none" xmlns="http://www.w3.org/2000/svg">
<path opacity="0.4" d="M24.7998 12C24.7998 18.6276 19.4274 24 12.7998 24C6.1722 24 0.799805 18.6276 0.799805 12C0.799805 5.3736 6.1722 0 12.7998 0C19.4274 0 24.7998 5.3736 24.7998 12Z" fill="#1DA1F2"/>
<path d="M17.4315 8.04577L15.4875 14.1898C15.4155 14.4418 15.2115 14.6458 14.9595 14.719L8.83946 16.6378C8.43146 16.771 8.03546 16.3738 8.16746 15.9658L10.0875 9.80977C10.1595 9.55777 10.3635 9.36577 10.6155 9.28177L16.7595 7.36177C17.1795 7.22977 17.5635 7.62577 17.4315 8.04577Z" fill="#1DA1F2"/>
</svg>
