<svg width="60" height="60" viewBox="0 0 60 60" fill="none" xmlns="http://www.w3.org/2000/svg">
<rect width="60" height="60" rx="30" fill="white" fill-opacity="0.5"/>
<path d="M20.7384 27.738C20.8514 27.622 21.2781 27.126 21.6756 26.718C24.0058 24.152 30.0848 19.952 33.2664 18.67C33.7496 18.464 34.9713 18.028 35.624 18C36.2494 18 36.8456 18.144 37.4145 18.436C38.1237 18.844 38.6926 19.486 39.0044 20.244C39.2051 20.77 39.5168 22.344 39.5168 22.372C39.8285 24.094 40 26.892 40 29.984C40 32.93 39.8285 35.614 39.5733 37.362C39.5441 37.39 39.2323 39.346 38.8914 40.016C38.266 41.24 37.0443 42 35.737 42H35.624C34.7725 41.97 32.982 41.21 32.982 41.182C29.9717 39.898 24.0331 35.904 21.6464 33.25C21.6464 33.25 20.9742 32.568 20.6819 32.142C20.226 31.53 20 30.772 20 30.014C20 29.168 20.2552 28.38 20.7384 27.738Z" fill="#1DA1F2"/>
</svg>
