<svg width="50" height="48" viewBox="0 0 50 48" fill="none" xmlns="http://www.w3.org/2000/svg">
<path fill-rule="evenodd" clip-rule="evenodd" d="M18.9993 29.9229C27.1551 29.9229 37.9986 30.8413 37.9986 38.7869C37.9986 47.1567 25.3635 47.6589 19.9438 47.689L17.976 47.689C12.1972 47.659 0 47.1597 0 38.8369C0 30.4577 12.6351 29.955 18.0548 29.9248L18.706 29.9229C18.8075 29.9229 18.9053 29.9229 18.9993 29.9229ZM18.9993 33.6767C12.0447 33.6767 3.75381 34.5701 3.75381 38.8369C3.75381 42.2204 8.88402 43.9371 18.9993 43.9371C29.1146 43.9371 34.2448 42.2028 34.2448 38.7869C34.2448 35.3959 29.1146 33.6767 18.9993 33.6767ZM41.8092 28.7539C48.5811 29.7675 50 32.9031 50 35.3531C50 37.1775 49.2117 39.6475 45.4504 41.0714C45.2327 41.154 45.0074 41.1941 44.7847 41.1941C44.0264 41.1941 43.3132 40.7311 43.0304 39.9828C42.6626 39.0144 43.1505 37.9282 44.119 37.5629C46.2462 36.7571 46.2462 35.7736 46.2462 35.3531C46.2462 33.9342 44.567 32.9632 41.2561 32.4702C40.2301 32.3151 39.5219 31.3591 39.6745 30.3355C39.8297 29.3095 40.8032 28.6213 41.8092 28.7539ZM18.9993 0C26.084 0 31.85 5.76585 31.85 12.8505C31.8648 16.264 30.541 19.4873 28.1286 21.9147C25.7211 24.3447 22.5053 25.6886 19.0844 25.7011H18.9993C11.9121 25.7011 6.14624 19.9352 6.14624 12.8505C6.14624 5.76585 11.9121 0 18.9993 0ZM36.7363 2.81235C41.6538 3.61817 45.2224 7.82494 45.2224 12.8125C45.2124 17.8301 41.4661 22.1395 36.5061 22.8352C36.4185 22.8477 36.3309 22.8527 36.2433 22.8527C35.3224 22.8527 34.519 22.1745 34.3864 21.2361C34.2438 20.21 34.957 19.259 35.983 19.1164C39.1062 18.6785 41.4636 15.9682 41.4686 12.81C41.4686 9.67182 39.2213 7.02413 36.1307 6.51862C35.1071 6.34844 34.4139 5.38497 34.5816 4.36143C34.7493 3.33789 35.7178 2.64969 36.7363 2.81235ZM18.9993 3.75381C13.9817 3.75381 9.90005 7.83545 9.90005 12.8505C9.90005 17.8656 13.9817 21.9473 18.9993 21.9473H19.0769C21.4893 21.9373 23.7616 20.9888 25.4658 19.2696C27.1726 17.5553 28.106 15.2755 28.0961 12.8581C28.0961 7.83545 24.0144 3.75381 18.9993 3.75381Z" fill="black"/>
</svg>
