<svg width="58" height="55" viewBox="0 0 58 55" fill="none" xmlns="http://www.w3.org/2000/svg">
<rect x="0.5" y="0.5" width="56.9896" height="54" rx="9.5" fill="white" fill-opacity="0.75"/>
<path d="M28.9948 33.0563C21.447 33.0563 15 34.2463 15 39.0063C15 43.7681 21.4068 45.0001 28.9948 45.0001C36.5426 45.0001 42.9896 43.8118 42.9896 39.0501C42.9896 34.2883 36.5846 33.0563 28.9948 33.0563Z" fill="#1DA1F2"/>
<path opacity="0.4" d="M28.9949 28.5221C34.1365 28.5221 38.256 24.4008 38.256 19.261C38.256 14.1213 34.1365 10 28.9949 10C23.8552 10 19.7339 14.1213 19.7339 19.261C19.7339 24.4008 23.8552 28.5221 28.9949 28.5221Z" fill="#1DA1F2"/>
<rect x="0.5" y="0.5" width="56.9896" height="54" rx="9.5" stroke="#1DA1F2"/>
</svg>
