<svg width="75" height="54" viewBox="0 0 75 54" fill="none" xmlns="http://www.w3.org/2000/svg">
<path d="M37.3639 35.3318C48.8012 35.3318 58.5671 37.145 58.5671 44.4009C58.5671 51.6538 48.8639 53.533 37.3639 53.533C25.9267 53.533 16.1608 51.7198 16.1608 44.4669C16.1608 37.211 25.864 35.3318 37.3639 35.3318ZM55.6508 30.9626C60.0233 30.8816 64.7242 31.482 66.4613 31.9083C70.1414 32.6318 72.5619 34.1088 73.5648 36.2552C74.4124 38.0174 74.4124 40.0618 73.5648 41.8209C72.0307 45.1502 67.0851 46.2189 65.1629 46.4951C64.766 46.5551 64.4466 46.2099 64.4884 45.8106C65.4703 36.5854 57.6594 32.2115 55.6388 31.2058C55.5523 31.1608 55.5344 31.0917 55.5433 31.0497C55.5493 31.0197 55.5851 30.9716 55.6508 30.9626ZM19.4192 30.9638C19.4848 30.9728 19.5177 31.0209 19.5236 31.0479C19.5326 31.0929 19.5147 31.159 19.4311 31.207C17.4075 32.2127 9.59662 36.5866 10.5786 45.8088C10.6204 46.2111 10.304 46.5533 9.90702 46.4963C7.98489 46.2201 3.03928 45.1514 1.50516 41.8221C0.654529 40.06 0.654529 38.0186 1.50516 36.2564C2.50801 34.11 4.9256 32.633 8.6057 31.9065C10.3458 31.4832 15.0436 30.8828 19.4192 30.9638ZM37.3639 0.199707C45.151 0.199707 51.3949 6.47393 51.3949 14.3092C51.3949 22.1415 45.151 28.4217 37.3639 28.4217C29.5769 28.4217 23.333 22.1415 23.333 14.3092C23.333 6.47393 29.5769 0.199707 37.3639 0.199707ZM56.4118 2.55269C63.9332 2.55269 69.8399 9.67049 67.8282 17.5988C66.4702 22.9364 61.5544 26.4818 56.0776 26.3377C55.5284 26.3227 54.9882 26.2717 54.4658 26.1816C54.0868 26.1156 53.8958 25.6863 54.1107 25.3681C56.1999 22.276 57.3908 18.5565 57.3908 14.5638C57.3908 10.397 56.0895 6.51236 53.8301 3.32721C53.7585 3.22815 53.7047 3.07504 53.7764 2.96097C53.8361 2.8679 53.9465 2.81987 54.051 2.79586C54.8121 2.63975 55.5941 2.55269 56.4118 2.55269ZM18.6536 2.55239C19.4714 2.55239 20.2534 2.63945 21.0175 2.79556C21.119 2.81957 21.2324 2.87061 21.2921 2.96067C21.3607 3.07474 21.31 3.22785 21.2383 3.32691C18.9789 6.51206 17.6776 10.3967 17.6776 14.5635C17.6776 18.5562 18.8685 22.2757 20.9578 25.3678C21.1727 25.686 20.9817 26.1153 20.6026 26.1813C20.0773 26.2744 19.5401 26.3224 18.9909 26.3374C13.514 26.4815 8.59824 22.9361 7.24022 17.5985C5.22556 9.67019 11.1322 2.55239 18.6536 2.55239Z" fill="#1DA1F2"/>
</svg>
