<svg width="65" height="50" viewBox="0 0 65 50" fill="none" xmlns="http://www.w3.org/2000/svg">
<path fill-rule="evenodd" clip-rule="evenodd" d="M32.4197 31.0123L32.7559 31.0124L33.5081 31.0149C39.2573 31.0528 52.3957 31.6336 52.3957 40.5387C52.3957 49.3854 39.7153 49.9624 33.5977 50L31.3312 50C25.5817 49.9622 12.4406 49.3821 12.4406 40.4881C12.4406 31.6303 25.5817 31.0526 31.3312 31.0149L32.0834 31.0124C32.2001 31.0123 32.3123 31.0123 32.4197 31.0123ZM32.4197 35.4792C25.3441 35.4792 16.9076 36.3488 16.9076 40.4881C16.9076 44.5338 24.8405 45.4796 31.7729 45.5332L32.4197 45.5357C39.4952 45.5357 47.9288 44.6691 47.9288 40.5387C47.9288 36.3577 39.4952 35.4792 32.4197 35.4792ZM56.105 29.8038C63.3206 30.8848 64.8363 34.2737 64.8363 36.9271C64.8363 38.5471 64.1991 41.5042 59.9406 43.1272C59.6786 43.2254 59.4105 43.2731 59.1455 43.2731C58.2462 43.2731 57.3974 42.7251 57.058 41.8347C56.6172 40.6823 57.1979 39.3898 58.3504 38.9521C60.3694 38.1838 60.3694 37.3351 60.3694 36.9271C60.3694 35.6227 58.7107 34.7115 55.4409 34.2231C54.223 34.0385 53.3802 32.9039 53.5619 31.6799C53.7435 30.459 54.8751 29.646 56.105 29.8038ZM11.2745 31.6799C11.4561 32.9039 10.6134 34.0385 9.39541 34.2231C6.12563 34.7115 4.46691 35.6227 4.46691 36.9271C4.46691 37.3351 4.46691 38.1808 6.48894 38.9521C7.6414 39.3898 8.2221 40.6823 7.78136 41.8347C7.44188 42.7251 6.59316 43.2731 5.69382 43.2731C5.42879 43.2731 5.16077 43.2254 4.89871 43.1272C0.63728 41.5012 0 38.5441 0 36.9271C0 34.2767 1.51577 30.8848 8.7343 29.8038C9.96419 29.649 11.0899 30.459 11.2745 31.6799ZM32.4197 0C39.9241 0 46.0259 6.10478 46.0259 13.6062C46.0259 21.1077 39.9241 27.2124 32.4197 27.2124H32.3393C28.7062 27.2005 25.3024 25.7771 22.7533 23.2041C20.1982 20.6342 18.8015 17.2214 18.8163 13.5973C18.8163 6.10478 24.9182 0 32.4197 0ZM32.4197 4.46691C27.381 4.46691 23.2833 8.56754 23.2833 13.6062C23.2744 16.0481 24.2095 18.3322 25.9218 20.0564C27.6341 21.7807 29.9152 22.7366 32.3452 22.7455L32.4197 24.979V22.7455C37.4583 22.7455 41.559 18.6479 41.559 13.6062C41.559 8.56754 37.4583 4.46691 32.4197 4.46691ZM50.8501 2.91689C56.0854 3.77752 59.8882 8.25634 59.8882 13.566C59.8763 18.9114 55.8829 23.4974 50.597 24.239C50.4928 24.2538 50.3886 24.2598 50.2873 24.2598C49.1914 24.2598 48.2355 23.4528 48.0777 22.3361C47.9079 21.1121 48.7567 19.9835 49.9806 19.8137C53.0776 19.379 55.4153 16.6929 55.4213 13.5601C55.4213 10.4541 53.1938 7.82752 50.1235 7.32425C48.9085 7.12473 48.0836 5.97524 48.2832 4.75726C48.4857 3.53928 49.6262 2.72333 50.8501 2.91689ZM16.5562 4.75726C16.7557 5.97524 15.9308 7.12473 14.7158 7.32425C11.6455 7.82752 9.41804 10.4541 9.41804 13.566C9.424 16.6929 11.7617 19.3819 14.8558 19.8137C16.0797 19.9835 16.9284 21.1121 16.7587 22.3361C16.6008 23.4528 15.6449 24.2598 14.549 24.2598C14.4478 24.2598 14.3436 24.2538 14.2393 24.239C8.95348 23.4974 4.96304 18.9114 4.95113 13.572C4.95113 8.25634 8.75396 3.77752 13.9892 2.91689C15.2429 2.72035 16.3537 3.54524 16.5562 4.75726Z" fill="black"/>
</svg>
