<svg width="55" height="55" viewBox="0 0 55 55" fill="none" xmlns="http://www.w3.org/2000/svg">
<rect x="0.5" y="0.5" width="54" height="54" rx="9.5" fill="white" fill-opacity="0.75"/>
<path opacity="0.4" d="M34.6321 10H40.5576C43.0115 10 45 12.0052 45 14.4799V20.4554C45 22.9301 43.0115 24.9354 40.5576 24.9354H34.6321C32.1781 24.9354 30.1897 22.9301 30.1897 20.4554V14.4799C30.1897 12.0052 32.1781 10 34.6321 10Z" fill="#1DA1F2"/>
<path d="M20.3679 30.0646C22.8218 30.0646 24.8103 32.0699 24.8103 34.5446V40.5201C24.8103 42.9931 22.8218 45 20.3679 45H14.4424C11.9884 45 10 42.9931 10 40.5201V34.5446C10 32.0699 11.9884 30.0646 14.4424 30.0646H20.3679ZM40.5576 30.0646C43.0116 30.0646 45 32.0699 45 34.5446V40.5201C45 42.9931 43.0116 45 40.5576 45H34.6321C32.1782 45 30.1897 42.9931 30.1897 40.5201V34.5446C30.1897 32.0699 32.1782 30.0646 34.6321 30.0646H40.5576ZM20.3679 10C22.8218 10 24.8103 12.0052 24.8103 14.4799V20.4554C24.8103 22.9301 22.8218 24.9354 20.3679 24.9354H14.4424C11.9884 24.9354 10 22.9301 10 20.4554V14.4799C10 12.0052 11.9884 10 14.4424 10H20.3679Z" fill="#1DA1F2"/>
<rect x="0.5" y="0.5" width="54" height="54" rx="9.5" stroke="#1DA1F2"/>
</svg>
