<svg width="50" height="50" viewBox="0 0 50 50" fill="none" xmlns="http://www.w3.org/2000/svg">
<path fill-rule="evenodd" clip-rule="evenodd" d="M19.6925 31.14L19.9903 31.1401L20.6502 31.1419C26.255 31.1718 39.385 31.6813 39.385 40.3425C39.385 48.3727 28.6015 49.4458 20.2135 49.4863L18.7348 49.4856C13.13 49.4557 0 48.9463 0 40.2875C0 32.0875 11.2375 31.14 19.6925 31.14ZM19.6925 34.89C9.115 34.89 3.75 36.7075 3.75 40.2875C3.75 43.9025 9.115 45.7375 19.6925 45.7375C30.27 45.7375 35.635 43.92 35.635 40.3425C35.635 36.7225 30.27 34.89 19.6925 34.89ZM43.0103 14.7968C44.0452 14.7968 44.8853 15.6368 44.8853 16.6718L44.885 19.8075L48.125 19.8095C49.16 19.8095 50 20.6495 50 21.6845C50 22.7195 49.16 23.5595 48.125 23.5595L44.885 23.5575L44.8853 26.6992C44.8853 27.7342 44.0452 28.5742 43.0103 28.5742C41.9753 28.5742 41.1353 27.7342 41.1353 26.6992L41.135 23.5575L37.9 23.5595C36.865 23.5595 36.025 22.7195 36.025 21.6845C36.025 20.6495 36.865 19.8095 37.9 19.8095L41.135 19.8075L41.1353 16.6718C41.1353 15.6368 41.9753 14.7968 43.0103 14.7968ZM19.6925 0C27.025 0 32.9875 5.965 32.9875 13.295C32.9875 20.625 27.025 26.59 19.6925 26.59H19.615C16.0675 26.5775 12.7425 25.185 10.25 22.675C7.755 20.1625 6.3875 16.8275 6.39992 13.2875C6.39992 5.965 12.3625 0 19.6925 0ZM19.6925 3.75C14.4325 3.75 10.1499 8.0325 10.1499 13.295C10.14 15.8425 11.12 18.23 12.9075 20.0325C14.6975 21.8325 17.0825 22.83 19.6225 22.84L19.6925 24.6925V22.84C24.955 22.84 29.2375 18.5575 29.2375 13.295C29.2375 8.0325 24.955 3.75 19.6925 3.75Z" fill="black"/>
</svg>
