<svg width="82" height="69" viewBox="0 0 82 69" fill="none" xmlns="http://www.w3.org/2000/svg">
<g filter="url(#filter0_d_1563_646)">
<path d="M40.8842 39.9537C48.6823 39.9537 55.3408 41.19 55.3408 46.1372C55.3408 51.0823 48.725 52.3636 40.8842 52.3636C33.086 52.3636 26.4275 51.1273 26.4275 46.1822C26.4275 41.235 33.0433 39.9537 40.8842 39.9537ZM53.3524 36.9747C56.3337 36.9195 59.5389 37.3288 60.7232 37.6195C63.2324 38.1128 64.8828 39.1198 65.5665 40.5833C66.1445 41.7848 66.1445 43.1787 65.5665 44.3781C64.5205 46.6481 61.1485 47.3767 59.838 47.565C59.5673 47.606 59.3496 47.3706 59.3781 47.0984C60.0476 40.8084 54.722 37.8262 53.3443 37.1405C53.2853 37.1098 53.2731 37.0627 53.2792 37.0341C53.2832 37.0136 53.3077 36.9809 53.3524 36.9747ZM28.6491 36.9755C28.6939 36.9817 28.7162 37.0144 28.7203 37.0329C28.7264 37.0636 28.7142 37.1086 28.6572 37.1413C27.2775 37.827 21.9519 40.8093 22.6214 47.0971C22.6499 47.3714 22.4342 47.6047 22.1635 47.5659C20.853 47.3776 17.481 46.6489 16.435 44.3789C15.855 43.1774 15.855 41.7856 16.435 40.5841C17.1187 39.1206 18.7671 38.1136 21.2763 37.6182C22.4627 37.3296 25.6658 36.9203 28.6491 36.9755ZM40.8842 16C46.1935 16 50.4507 20.2779 50.4507 25.6201C50.4507 30.9603 46.1935 35.2423 40.8842 35.2423C35.5748 35.2423 31.3176 30.9603 31.3176 25.6201C31.3176 20.2779 35.5748 16 40.8842 16ZM53.8714 17.6043C58.9996 17.6043 63.0269 22.4573 61.6553 27.863C60.7293 31.5023 57.3777 33.9196 53.6434 33.8214C53.269 33.8111 52.9007 33.7763 52.5445 33.7149C52.2861 33.6699 52.1559 33.3772 52.3024 33.1602C53.7269 31.052 54.5388 28.516 54.5388 25.7937C54.5388 22.9527 53.6516 20.3041 52.1111 18.1324C52.0622 18.0648 52.0256 17.9605 52.0745 17.8827C52.1152 17.8192 52.1904 17.7865 52.2617 17.7701C52.7806 17.6637 53.3138 17.6043 53.8714 17.6043ZM28.1271 17.6041C28.6847 17.6041 29.2179 17.6635 29.7388 17.7699C29.808 17.7863 29.8854 17.8211 29.9261 17.8825C29.9729 17.9603 29.9383 18.0646 29.8894 18.1322C28.3489 20.3039 27.4617 22.9525 27.4617 25.7935C27.4617 28.5158 28.2736 31.0518 29.6981 33.16C29.8447 33.377 29.7144 33.6697 29.456 33.7147C29.0978 33.7782 28.7315 33.8109 28.3571 33.8212C24.6228 33.9194 21.2712 31.5021 20.3452 27.8628C18.9716 22.4571 22.9989 17.6041 28.1271 17.6041Z" fill="#1DA1F2"/>
</g>
<defs>
<filter id="filter0_d_1563_646" x="0" y="0" width="82" height="68.3638" filterUnits="userSpaceOnUse" color-interpolation-filters="sRGB">
<feFlood flood-opacity="0" result="BackgroundImageFix"/>
<feColorMatrix in="SourceAlpha" type="matrix" values="0 0 0 0 0 0 0 0 0 0 0 0 0 0 0 0 0 0 127 0" result="hardAlpha"/>
<feMorphology radius="1" operator="dilate" in="SourceAlpha" result="effect1_dropShadow_1563_646"/>
<feOffset/>
<feGaussianBlur stdDeviation="7.5"/>
<feComposite in2="hardAlpha" operator="out"/>
<feColorMatrix type="matrix" values="0 0 0 0 0 0 0 0 0 0 0 0 0 0 0 0 0 0 0.25 0"/>
<feBlend mode="normal" in2="BackgroundImageFix" result="effect1_dropShadow_1563_646"/>
<feBlend mode="normal" in="SourceGraphic" in2="effect1_dropShadow_1563_646" result="shape"/>
</filter>
</defs>
</svg>
